<?xml version="1.0" encoding="utf-8" standalone="no"?>
<!DOCTYPE svg PUBLIC "-//W3C//DTD SVG 1.1//EN"
  "http://www.w3.org/Graphics/SVG/1.1/DTD/svg11.dtd">
<svg xmlns:xlink="http://www.w3.org/1999/xlink" width="568.72375pt" height="351.657187pt" viewBox="0 0 568.72375 351.657187" xmlns="http://www.w3.org/2000/svg" version="1.1">
 <metadata>
  <rdf:RDF xmlns:dc="http://purl.org/dc/elements/1.1/" xmlns:cc="http://creativecommons.org/ns#" xmlns:rdf="http://www.w3.org/1999/02/22-rdf-syntax-ns#">
   <cc:Work>
    <dc:type rdf:resource="http://purl.org/dc/dcmitype/StillImage"/>
    <dc:date>2026-07-15T17:13:56.980110</dc:date>
    <dc:format>image/svg+xml</dc:format>
    <dc:creator>
     <cc:Agent>
      <dc:title>Matplotlib v3.10.8, https://matplotlib.org/</dc:title>
     </cc:Agent>
    </dc:creator>
   </cc:Work>
  </rdf:RDF>
 </metadata>
 <defs>
  <style type="text/css">*{stroke-linejoin: round; stroke-linecap: butt}</style>
 </defs>
 <g id="figure_1">
  <g id="patch_1">
   <path d="M 0 351.657187
L 568.72375 351.657187
L 568.72375 0
L 0 0
z
" style="fill: #ffffff"/>
  </g>
  <g id="axes_1">
   <g id="patch_2">
    <path d="M 32.94375 331.811875
L 561.52375 331.811875
L 561.52375 23.904375
L 32.94375 23.904375
z
" style="fill: #ffffff"/>
   </g>
   <g id="matplotlib.axis_1">
    <g id="xtick_1">
     <g id="line2d_1">
      <path d="M 110.666027 331.811875
L 110.666027 23.904375
" clip-path="url(#p7ef85057ce)" style="fill: none; stroke: #cccccc; stroke-width: 0.8; stroke-linecap: round"/>
     </g>
     <g id="line2d_2"/>
     <g id="text_1">
      <!-- −0.20 -->
      <g style="fill: #262626" transform="translate(98.015246 342.469687) scale(0.1 -0.1)">
       <defs>
        <path id="ArialMT-2212" d="M 3381 1997
L 356 1997
L 356 2522
L 3381 2522
L 3381 1997
z
" transform="scale(0.015625)"/>
        <path id="ArialMT-30" d="M 266 2259
Q 266 3072 433 3567
Q 600 4063 929 4331
Q 1259 4600 1759 4600
Q 2128 4600 2406 4451
Q 2684 4303 2865 4023
Q 3047 3744 3150 3342
Q 3253 2941 3253 2259
Q 3253 1453 3087 958
Q 2922 463 2592 192
Q 2263 -78 1759 -78
Q 1097 -78 719 397
Q 266 969 266 2259
z
M 844 2259
Q 844 1131 1108 757
Q 1372 384 1759 384
Q 2147 384 2411 759
Q 2675 1134 2675 2259
Q 2675 3391 2411 3762
Q 2147 4134 1753 4134
Q 1366 4134 1134 3806
Q 844 3388 844 2259
z
" transform="scale(0.015625)"/>
        <path id="ArialMT-2e" d="M 581 0
L 581 641
L 1222 641
L 1222 0
L 581 0
z
" transform="scale(0.015625)"/>
        <path id="ArialMT-32" d="M 3222 541
L 3222 0
L 194 0
Q 188 203 259 391
Q 375 700 629 1000
Q 884 1300 1366 1694
Q 2113 2306 2375 2664
Q 2638 3022 2638 3341
Q 2638 3675 2398 3904
Q 2159 4134 1775 4134
Q 1369 4134 1125 3890
Q 881 3647 878 3216
L 300 3275
Q 359 3922 746 4261
Q 1134 4600 1788 4600
Q 2447 4600 2831 4234
Q 3216 3869 3216 3328
Q 3216 3053 3103 2787
Q 2991 2522 2730 2228
Q 2469 1934 1863 1422
Q 1356 997 1212 845
Q 1069 694 975 541
L 3222 541
z
" transform="scale(0.015625)"/>
       </defs>
       <use xlink:href="#ArialMT-2212"/>
       <use xlink:href="#ArialMT-30" transform="translate(58.398438 0)"/>
       <use xlink:href="#ArialMT-2e" transform="translate(114.013672 0)"/>
       <use xlink:href="#ArialMT-32" transform="translate(141.796875 0)"/>
       <use xlink:href="#ArialMT-30" transform="translate(197.412109 0)"/>
      </g>
     </g>
    </g>
    <g id="xtick_2">
     <g id="line2d_3">
      <path d="M 217.373867 331.811875
L 217.373867 23.904375
" clip-path="url(#p7ef85057ce)" style="fill: none; stroke: #cccccc; stroke-width: 0.8; stroke-linecap: round"/>
     </g>
     <g id="line2d_4"/>
     <g id="text_2">
      <!-- −0.15 -->
      <g style="fill: #262626" transform="translate(204.723086 342.469687) scale(0.1 -0.1)">
       <defs>
        <path id="ArialMT-31" d="M 2384 0
L 1822 0
L 1822 3584
Q 1619 3391 1289 3197
Q 959 3003 697 2906
L 697 3450
Q 1169 3672 1522 3987
Q 1875 4303 2022 4600
L 2384 4600
L 2384 0
z
" transform="scale(0.015625)"/>
        <path id="ArialMT-35" d="M 266 1200
L 856 1250
Q 922 819 1161 601
Q 1400 384 1738 384
Q 2144 384 2425 690
Q 2706 997 2706 1503
Q 2706 1984 2436 2262
Q 2166 2541 1728 2541
Q 1456 2541 1237 2417
Q 1019 2294 894 2097
L 366 2166
L 809 4519
L 3088 4519
L 3088 3981
L 1259 3981
L 1013 2750
Q 1425 3038 1878 3038
Q 2478 3038 2890 2622
Q 3303 2206 3303 1553
Q 3303 931 2941 478
Q 2500 -78 1738 -78
Q 1113 -78 717 272
Q 322 622 266 1200
z
" transform="scale(0.015625)"/>
       </defs>
       <use xlink:href="#ArialMT-2212"/>
       <use xlink:href="#ArialMT-30" transform="translate(58.398438 0)"/>
       <use xlink:href="#ArialMT-2e" transform="translate(114.013672 0)"/>
       <use xlink:href="#ArialMT-31" transform="translate(141.796875 0)"/>
       <use xlink:href="#ArialMT-35" transform="translate(197.412109 0)"/>
      </g>
     </g>
    </g>
    <g id="xtick_3">
     <g id="line2d_5">
      <path d="M 324.081707 331.811875
L 324.081707 23.904375
" clip-path="url(#p7ef85057ce)" style="fill: none; stroke: #cccccc; stroke-width: 0.8; stroke-linecap: round"/>
     </g>
     <g id="line2d_6"/>
     <g id="text_3">
      <!-- −0.10 -->
      <g style="fill: #262626" transform="translate(311.430926 342.469687) scale(0.1 -0.1)">
       <use xlink:href="#ArialMT-2212"/>
       <use xlink:href="#ArialMT-30" transform="translate(58.398438 0)"/>
       <use xlink:href="#ArialMT-2e" transform="translate(114.013672 0)"/>
       <use xlink:href="#ArialMT-31" transform="translate(141.796875 0)"/>
       <use xlink:href="#ArialMT-30" transform="translate(197.412109 0)"/>
      </g>
     </g>
    </g>
    <g id="xtick_4">
     <g id="line2d_7">
      <path d="M 430.789547 331.811875
L 430.789547 23.904375
" clip-path="url(#p7ef85057ce)" style="fill: none; stroke: #cccccc; stroke-width: 0.8; stroke-linecap: round"/>
     </g>
     <g id="line2d_8"/>
     <g id="text_4">
      <!-- −0.05 -->
      <g style="fill: #262626" transform="translate(418.138765 342.469687) scale(0.1 -0.1)">
       <use xlink:href="#ArialMT-2212"/>
       <use xlink:href="#ArialMT-30" transform="translate(58.398438 0)"/>
       <use xlink:href="#ArialMT-2e" transform="translate(114.013672 0)"/>
       <use xlink:href="#ArialMT-30" transform="translate(141.796875 0)"/>
       <use xlink:href="#ArialMT-35" transform="translate(197.412109 0)"/>
      </g>
     </g>
    </g>
    <g id="xtick_5">
     <g id="line2d_9">
      <path d="M 537.497386 331.811875
L 537.497386 23.904375
" clip-path="url(#p7ef85057ce)" style="fill: none; stroke: #cccccc; stroke-width: 0.8; stroke-linecap: round"/>
     </g>
     <g id="line2d_10"/>
     <g id="text_5">
      <!-- 0.00 -->
      <g style="fill: #262626" transform="translate(527.766918 342.469687) scale(0.1 -0.1)">
       <use xlink:href="#ArialMT-30"/>
       <use xlink:href="#ArialMT-2e" transform="translate(55.615234 0)"/>
       <use xlink:href="#ArialMT-30" transform="translate(83.398438 0)"/>
       <use xlink:href="#ArialMT-30" transform="translate(139.013672 0)"/>
      </g>
     </g>
    </g>
   </g>
   <g id="matplotlib.axis_2">
    <g id="ytick_1">
     <g id="line2d_11">
      <path d="M 32.94375 331.811875
L 561.52375 331.811875
" clip-path="url(#p7ef85057ce)" style="fill: none; stroke: #cccccc; stroke-width: 0.8; stroke-linecap: round"/>
     </g>
     <g id="line2d_12"/>
     <g id="text_6">
      <!-- 0 -->
      <g style="fill: #262626" transform="translate(23.882812 335.390781) scale(0.1 -0.1)">
       <use xlink:href="#ArialMT-30"/>
      </g>
     </g>
    </g>
    <g id="ytick_2">
     <g id="line2d_13">
      <path d="M 32.94375 272.689851
L 561.52375 272.689851
" clip-path="url(#p7ef85057ce)" style="fill: none; stroke: #cccccc; stroke-width: 0.8; stroke-linecap: round"/>
     </g>
     <g id="line2d_14"/>
     <g id="text_7">
      <!-- 500 -->
      <g style="fill: #262626" transform="translate(12.760938 276.268757) scale(0.1 -0.1)">
       <use xlink:href="#ArialMT-35"/>
       <use xlink:href="#ArialMT-30" transform="translate(55.615234 0)"/>
       <use xlink:href="#ArialMT-30" transform="translate(111.230469 0)"/>
      </g>
     </g>
    </g>
    <g id="ytick_3">
     <g id="line2d_15">
      <path d="M 32.94375 213.567827
L 561.52375 213.567827
" clip-path="url(#p7ef85057ce)" style="fill: none; stroke: #cccccc; stroke-width: 0.8; stroke-linecap: round"/>
     </g>
     <g id="line2d_16"/>
     <g id="text_8">
      <!-- 1000 -->
      <g style="fill: #262626" transform="translate(7.2 217.146734) scale(0.1 -0.1)">
       <use xlink:href="#ArialMT-31"/>
       <use xlink:href="#ArialMT-30" transform="translate(55.615234 0)"/>
       <use xlink:href="#ArialMT-30" transform="translate(111.230469 0)"/>
       <use xlink:href="#ArialMT-30" transform="translate(166.845703 0)"/>
      </g>
     </g>
    </g>
    <g id="ytick_4">
     <g id="line2d_17">
      <path d="M 32.94375 154.445804
L 561.52375 154.445804
" clip-path="url(#p7ef85057ce)" style="fill: none; stroke: #cccccc; stroke-width: 0.8; stroke-linecap: round"/>
     </g>
     <g id="line2d_18"/>
     <g id="text_9">
      <!-- 1500 -->
      <g style="fill: #262626" transform="translate(7.2 158.02471) scale(0.1 -0.1)">
       <use xlink:href="#ArialMT-31"/>
       <use xlink:href="#ArialMT-35" transform="translate(55.615234 0)"/>
       <use xlink:href="#ArialMT-30" transform="translate(111.230469 0)"/>
       <use xlink:href="#ArialMT-30" transform="translate(166.845703 0)"/>
      </g>
     </g>
    </g>
    <g id="ytick_5">
     <g id="line2d_19">
      <path d="M 32.94375 95.32378
L 561.52375 95.32378
" clip-path="url(#p7ef85057ce)" style="fill: none; stroke: #cccccc; stroke-width: 0.8; stroke-linecap: round"/>
     </g>
     <g id="line2d_20"/>
     <g id="text_10">
      <!-- 2000 -->
      <g style="fill: #262626" transform="translate(7.2 98.902686) scale(0.1 -0.1)">
       <use xlink:href="#ArialMT-32"/>
       <use xlink:href="#ArialMT-30" transform="translate(55.615234 0)"/>
       <use xlink:href="#ArialMT-30" transform="translate(111.230469 0)"/>
       <use xlink:href="#ArialMT-30" transform="translate(166.845703 0)"/>
      </g>
     </g>
    </g>
    <g id="ytick_6">
     <g id="line2d_21">
      <path d="M 32.94375 36.201756
L 561.52375 36.201756
" clip-path="url(#p7ef85057ce)" style="fill: none; stroke: #cccccc; stroke-width: 0.8; stroke-linecap: round"/>
     </g>
     <g id="line2d_22"/>
     <g id="text_11">
      <!-- 2500 -->
      <g style="fill: #262626" transform="translate(7.2 39.780662) scale(0.1 -0.1)">
       <use xlink:href="#ArialMT-32"/>
       <use xlink:href="#ArialMT-35" transform="translate(55.615234 0)"/>
       <use xlink:href="#ArialMT-30" transform="translate(111.230469 0)"/>
       <use xlink:href="#ArialMT-30" transform="translate(166.845703 0)"/>
      </g>
     </g>
    </g>
   </g>
   <g id="patch_3">
    <path d="M 56.970114 331.811875
L 63.834789 331.811875
L 63.834789 331.693631
L 56.970114 331.693631
z
" clip-path="url(#p7ef85057ce)" style="fill: #1f77b4"/>
   </g>
   <g id="patch_4">
    <path d="M 63.834789 331.811875
L 70.699464 331.811875
L 70.699464 331.811875
L 63.834789 331.811875
z
" clip-path="url(#p7ef85057ce)" style="fill: #1f77b4"/>
   </g>
   <g id="patch_5">
    <path d="M 70.699464 331.811875
L 77.56414 331.811875
L 77.56414 331.693631
L 70.699464 331.693631
z
" clip-path="url(#p7ef85057ce)" style="fill: #1f77b4"/>
   </g>
   <g id="patch_6">
    <path d="M 77.56414 331.811875
L 84.428815 331.811875
L 84.428815 331.811875
L 77.56414 331.811875
z
" clip-path="url(#p7ef85057ce)" style="fill: #1f77b4"/>
   </g>
   <g id="patch_7">
    <path d="M 84.428815 331.811875
L 91.29349 331.811875
L 91.29349 331.811875
L 84.428815 331.811875
z
" clip-path="url(#p7ef85057ce)" style="fill: #1f77b4"/>
   </g>
   <g id="patch_8">
    <path d="M 91.29349 331.811875
L 98.158166 331.811875
L 98.158166 331.811875
L 91.29349 331.811875
z
" clip-path="url(#p7ef85057ce)" style="fill: #1f77b4"/>
   </g>
   <g id="patch_9">
    <path d="M 98.158166 331.811875
L 105.022841 331.811875
L 105.022841 331.811875
L 98.158166 331.811875
z
" clip-path="url(#p7ef85057ce)" style="fill: #1f77b4"/>
   </g>
   <g id="patch_10">
    <path d="M 105.022841 331.811875
L 111.887516 331.811875
L 111.887516 331.811875
L 105.022841 331.811875
z
" clip-path="url(#p7ef85057ce)" style="fill: #1f77b4"/>
   </g>
   <g id="patch_11">
    <path d="M 111.887516 331.811875
L 118.752192 331.811875
L 118.752192 331.811875
L 111.887516 331.811875
z
" clip-path="url(#p7ef85057ce)" style="fill: #1f77b4"/>
   </g>
   <g id="patch_12">
    <path d="M 118.752192 331.811875
L 125.616867 331.811875
L 125.616867 331.811875
L 118.752192 331.811875
z
" clip-path="url(#p7ef85057ce)" style="fill: #1f77b4"/>
   </g>
   <g id="patch_13">
    <path d="M 125.616867 331.811875
L 132.481542 331.811875
L 132.481542 331.811875
L 125.616867 331.811875
z
" clip-path="url(#p7ef85057ce)" style="fill: #1f77b4"/>
   </g>
   <g id="patch_14">
    <path d="M 132.481542 331.811875
L 139.346218 331.811875
L 139.346218 331.693631
L 132.481542 331.693631
z
" clip-path="url(#p7ef85057ce)" style="fill: #1f77b4"/>
   </g>
   <g id="patch_15">
    <path d="M 139.346218 331.811875
L 146.210893 331.811875
L 146.210893 331.693631
L 139.346218 331.693631
z
" clip-path="url(#p7ef85057ce)" style="fill: #1f77b4"/>
   </g>
   <g id="patch_16">
    <path d="M 146.210893 331.811875
L 153.075568 331.811875
L 153.075568 331.693631
L 146.210893 331.693631
z
" clip-path="url(#p7ef85057ce)" style="fill: #1f77b4"/>
   </g>
   <g id="patch_17">
    <path d="M 153.075568 331.811875
L 159.940244 331.811875
L 159.940244 331.102411
L 153.075568 331.102411
z
" clip-path="url(#p7ef85057ce)" style="fill: #1f77b4"/>
   </g>
   <g id="patch_18">
    <path d="M 159.940244 331.811875
L 166.804919 331.811875
L 166.804919 331.338899
L 159.940244 331.338899
z
" clip-path="url(#p7ef85057ce)" style="fill: #1f77b4"/>
   </g>
   <g id="patch_19">
    <path d="M 166.804919 331.811875
L 173.669594 331.811875
L 173.669594 331.338899
L 166.804919 331.338899
z
" clip-path="url(#p7ef85057ce)" style="fill: #1f77b4"/>
   </g>
   <g id="patch_20">
    <path d="M 173.669594 331.811875
L 180.534269 331.811875
L 180.534269 331.575387
L 173.669594 331.575387
z
" clip-path="url(#p7ef85057ce)" style="fill: #1f77b4"/>
   </g>
   <g id="patch_21">
    <path d="M 180.534269 331.811875
L 187.398945 331.811875
L 187.398945 330.629435
L 180.534269 330.629435
z
" clip-path="url(#p7ef85057ce)" style="fill: #1f77b4"/>
   </g>
   <g id="patch_22">
    <path d="M 187.398945 331.811875
L 194.26362 331.811875
L 194.26362 330.629435
L 187.398945 330.629435
z
" clip-path="url(#p7ef85057ce)" style="fill: #1f77b4"/>
   </g>
   <g id="patch_23">
    <path d="M 194.26362 331.811875
L 201.128295 331.811875
L 201.128295 330.747679
L 194.26362 330.747679
z
" clip-path="url(#p7ef85057ce)" style="fill: #1f77b4"/>
   </g>
   <g id="patch_24">
    <path d="M 201.128295 331.811875
L 207.992971 331.811875
L 207.992971 331.220655
L 201.128295 331.220655
z
" clip-path="url(#p7ef85057ce)" style="fill: #1f77b4"/>
   </g>
   <g id="patch_25">
    <path d="M 207.992971 331.811875
L 214.857646 331.811875
L 214.857646 330.156458
L 207.992971 330.156458
z
" clip-path="url(#p7ef85057ce)" style="fill: #1f77b4"/>
   </g>
   <g id="patch_26">
    <path d="M 214.857646 331.811875
L 221.722321 331.811875
L 221.722321 329.210506
L 214.857646 329.210506
z
" clip-path="url(#p7ef85057ce)" style="fill: #1f77b4"/>
   </g>
   <g id="patch_27">
    <path d="M 221.722321 331.811875
L 228.586997 331.811875
L 228.586997 328.501042
L 221.722321 328.501042
z
" clip-path="url(#p7ef85057ce)" style="fill: #1f77b4"/>
   </g>
   <g id="patch_28">
    <path d="M 228.586997 331.811875
L 235.451672 331.811875
L 235.451672 329.446994
L 228.586997 329.446994
z
" clip-path="url(#p7ef85057ce)" style="fill: #1f77b4"/>
   </g>
   <g id="patch_29">
    <path d="M 235.451672 331.811875
L 242.316347 331.811875
L 242.316347 328.974018
L 235.451672 328.974018
z
" clip-path="url(#p7ef85057ce)" style="fill: #1f77b4"/>
   </g>
   <g id="patch_30">
    <path d="M 242.316347 331.811875
L 249.181023 331.811875
L 249.181023 328.73753
L 242.316347 328.73753
z
" clip-path="url(#p7ef85057ce)" style="fill: #1f77b4"/>
   </g>
   <g id="patch_31">
    <path d="M 249.181023 331.811875
L 256.045698 331.811875
L 256.045698 327.436845
L 249.181023 327.436845
z
" clip-path="url(#p7ef85057ce)" style="fill: #1f77b4"/>
   </g>
   <g id="patch_32">
    <path d="M 256.045698 331.811875
L 262.910373 331.811875
L 262.910373 324.480744
L 256.045698 324.480744
z
" clip-path="url(#p7ef85057ce)" style="fill: #1f77b4"/>
   </g>
   <g id="patch_33">
    <path d="M 262.910373 331.811875
L 269.775049 331.811875
L 269.775049 322.707083
L 262.910373 322.707083
z
" clip-path="url(#p7ef85057ce)" style="fill: #1f77b4"/>
   </g>
   <g id="patch_34">
    <path d="M 269.775049 331.811875
L 276.639724 331.811875
L 276.639724 323.534792
L 269.775049 323.534792
z
" clip-path="url(#p7ef85057ce)" style="fill: #1f77b4"/>
   </g>
   <g id="patch_35">
    <path d="M 276.639724 331.811875
L 283.504399 331.811875
L 283.504399 321.406399
L 276.639724 321.406399
z
" clip-path="url(#p7ef85057ce)" style="fill: #1f77b4"/>
   </g>
   <g id="patch_36">
    <path d="M 283.504399 331.811875
L 290.369075 331.811875
L 290.369075 317.977321
L 283.504399 317.977321
z
" clip-path="url(#p7ef85057ce)" style="fill: #1f77b4"/>
   </g>
   <g id="patch_37">
    <path d="M 290.369075 331.811875
L 297.23375 331.811875
L 297.23375 316.676637
L 290.369075 316.676637
z
" clip-path="url(#p7ef85057ce)" style="fill: #1f77b4"/>
   </g>
   <g id="patch_38">
    <path d="M 297.23375 331.811875
L 304.098425 331.811875
L 304.098425 315.494196
L 297.23375 315.494196
z
" clip-path="url(#p7ef85057ce)" style="fill: #1f77b4"/>
   </g>
   <g id="patch_39">
    <path d="M 304.098425 331.811875
L 310.963101 331.811875
L 310.963101 313.83878
L 304.098425 313.83878
z
" clip-path="url(#p7ef85057ce)" style="fill: #1f77b4"/>
   </g>
   <g id="patch_40">
    <path d="M 310.963101 331.811875
L 317.827776 331.811875
L 317.827776 305.206964
L 310.963101 305.206964
z
" clip-path="url(#p7ef85057ce)" style="fill: #1f77b4"/>
   </g>
   <g id="patch_41">
    <path d="M 317.827776 331.811875
L 324.692451 331.811875
L 324.692451 302.369107
L 317.827776 302.369107
z
" clip-path="url(#p7ef85057ce)" style="fill: #1f77b4"/>
   </g>
   <g id="patch_42">
    <path d="M 324.692451 331.811875
L 331.557127 331.811875
L 331.557127 302.605595
L 324.692451 302.605595
z
" clip-path="url(#p7ef85057ce)" style="fill: #1f77b4"/>
   </g>
   <g id="patch_43">
    <path d="M 331.557127 331.811875
L 338.421802 331.811875
L 338.421802 291.490655
L 331.557127 291.490655
z
" clip-path="url(#p7ef85057ce)" style="fill: #1f77b4"/>
   </g>
   <g id="patch_44">
    <path d="M 338.421802 331.811875
L 345.286477 331.811875
L 345.286477 287.825089
L 338.421802 287.825089
z
" clip-path="url(#p7ef85057ce)" style="fill: #1f77b4"/>
   </g>
   <g id="patch_45">
    <path d="M 345.286477 331.811875
L 352.151153 331.811875
L 352.151153 279.784494
L 345.286477 279.784494
z
" clip-path="url(#p7ef85057ce)" style="fill: #1f77b4"/>
   </g>
   <g id="patch_46">
    <path d="M 352.151153 331.811875
L 359.015828 331.811875
L 359.015828 273.044583
L 352.151153 273.044583
z
" clip-path="url(#p7ef85057ce)" style="fill: #1f77b4"/>
   </g>
   <g id="patch_47">
    <path d="M 359.015828 331.811875
L 365.880503 331.811875
L 365.880503 264.058036
L 359.015828 264.058036
z
" clip-path="url(#p7ef85057ce)" style="fill: #1f77b4"/>
   </g>
   <g id="patch_48">
    <path d="M 365.880503 331.811875
L 372.745179 331.811875
L 372.745179 258.500565
L 365.880503 258.500565
z
" clip-path="url(#p7ef85057ce)" style="fill: #1f77b4"/>
   </g>
   <g id="patch_49">
    <path d="M 372.745179 331.811875
L 379.609854 331.811875
L 379.609854 247.622113
L 372.745179 247.622113
z
" clip-path="url(#p7ef85057ce)" style="fill: #1f77b4"/>
   </g>
   <g id="patch_50">
    <path d="M 379.609854 331.811875
L 386.474529 331.811875
L 386.474529 234.615268
L 379.609854 234.615268
z
" clip-path="url(#p7ef85057ce)" style="fill: #1f77b4"/>
   </g>
   <g id="patch_51">
    <path d="M 386.474529 331.811875
L 393.339205 331.811875
L 393.339205 229.649018
L 386.474529 229.649018
z
" clip-path="url(#p7ef85057ce)" style="fill: #1f77b4"/>
   </g>
   <g id="patch_52">
    <path d="M 393.339205 331.811875
L 400.20388 331.811875
L 400.20388 214.395536
L 393.339205 214.395536
z
" clip-path="url(#p7ef85057ce)" style="fill: #1f77b4"/>
   </g>
   <g id="patch_53">
    <path d="M 400.20388 331.811875
L 407.068555 331.811875
L 407.068555 204.108304
L 400.20388 204.108304
z
" clip-path="url(#p7ef85057ce)" style="fill: #1f77b4"/>
   </g>
   <g id="patch_54">
    <path d="M 407.068555 331.811875
L 413.933231 331.811875
L 413.933231 181.52369
L 407.068555 181.52369
z
" clip-path="url(#p7ef85057ce)" style="fill: #1f77b4"/>
   </g>
   <g id="patch_55">
    <path d="M 413.933231 331.811875
L 420.797906 331.811875
L 420.797906 170.881726
L 413.933231 170.881726
z
" clip-path="url(#p7ef85057ce)" style="fill: #1f77b4"/>
   </g>
   <g id="patch_56">
    <path d="M 420.797906 331.811875
L 427.662581 331.811875
L 427.662581 146.523452
L 420.797906 146.523452
z
" clip-path="url(#p7ef85057ce)" style="fill: #1f77b4"/>
   </g>
   <g id="patch_57">
    <path d="M 427.662581 331.811875
L 434.527256 331.811875
L 434.527256 139.192321
L 427.662581 139.192321
z
" clip-path="url(#p7ef85057ce)" style="fill: #1f77b4"/>
   </g>
   <g id="patch_58">
    <path d="M 434.527256 331.811875
L 441.391932 331.811875
L 441.391932 123.938839
L 434.527256 123.938839
z
" clip-path="url(#p7ef85057ce)" style="fill: #1f77b4"/>
   </g>
   <g id="patch_59">
    <path d="M 441.391932 331.811875
L 448.256607 331.811875
L 448.256607 104.66506
L 441.391932 104.66506
z
" clip-path="url(#p7ef85057ce)" style="fill: #1f77b4"/>
   </g>
   <g id="patch_60">
    <path d="M 448.256607 331.811875
L 455.121282 331.811875
L 455.121282 66.70872
L 448.256607 66.70872
z
" clip-path="url(#p7ef85057ce)" style="fill: #1f77b4"/>
   </g>
   <g id="patch_61">
    <path d="M 455.121282 331.811875
L 461.985958 331.811875
L 461.985958 65.762768
L 455.121282 65.762768
z
" clip-path="url(#p7ef85057ce)" style="fill: #1f77b4"/>
   </g>
   <g id="patch_62">
    <path d="M 461.985958 331.811875
L 468.850633 331.811875
L 468.850633 46.84372
L 461.985958 46.84372
z
" clip-path="url(#p7ef85057ce)" style="fill: #1f77b4"/>
   </g>
   <g id="patch_63">
    <path d="M 468.850633 331.811875
L 475.715308 331.811875
L 475.715308 48.026161
L 468.850633 48.026161
z
" clip-path="url(#p7ef85057ce)" style="fill: #1f77b4"/>
   </g>
   <g id="patch_64">
    <path d="M 475.715308 331.811875
L 482.579984 331.811875
L 482.579984 38.566637
L 475.715308 38.566637
z
" clip-path="url(#p7ef85057ce)" style="fill: #1f77b4"/>
   </g>
   <g id="patch_65">
    <path d="M 482.579984 331.811875
L 489.444659 331.811875
L 489.444659 49.799821
L 482.579984 49.799821
z
" clip-path="url(#p7ef85057ce)" style="fill: #1f77b4"/>
   </g>
   <g id="patch_66">
    <path d="M 489.444659 331.811875
L 496.309334 331.811875
L 496.309334 52.40119
L 489.444659 52.40119
z
" clip-path="url(#p7ef85057ce)" style="fill: #1f77b4"/>
   </g>
   <g id="patch_67">
    <path d="M 496.309334 331.811875
L 503.17401 331.811875
L 503.17401 99.462321
L 496.309334 99.462321
z
" clip-path="url(#p7ef85057ce)" style="fill: #1f77b4"/>
   </g>
   <g id="patch_68">
    <path d="M 503.17401 331.811875
L 510.038685 331.811875
L 510.038685 167.216161
L 503.17401 167.216161
z
" clip-path="url(#p7ef85057ce)" style="fill: #1f77b4"/>
   </g>
   <g id="patch_69">
    <path d="M 510.038685 331.811875
L 516.90336 331.811875
L 516.90336 220.07125
L 510.038685 220.07125
z
" clip-path="url(#p7ef85057ce)" style="fill: #1f77b4"/>
   </g>
   <g id="patch_70">
    <path d="M 516.90336 331.811875
L 523.768036 331.811875
L 523.768036 280.966935
L 516.90336 280.966935
z
" clip-path="url(#p7ef85057ce)" style="fill: #1f77b4"/>
   </g>
   <g id="patch_71">
    <path d="M 523.768036 331.811875
L 530.632711 331.811875
L 530.632711 317.859077
L 523.768036 317.859077
z
" clip-path="url(#p7ef85057ce)" style="fill: #1f77b4"/>
   </g>
   <g id="patch_72">
    <path d="M 530.632711 331.811875
L 537.497386 331.811875
L 537.497386 329.446994
L 530.632711 329.446994
z
" clip-path="url(#p7ef85057ce)" style="fill: #1f77b4"/>
   </g>
   <g id="patch_73">
    <path d="M 32.94375 331.811875
L 32.94375 23.904375
" style="fill: none; stroke: #cccccc; stroke-linejoin: miter; stroke-linecap: square"/>
   </g>
   <g id="patch_74">
    <path d="M 561.52375 331.811875
L 561.52375 23.904375
" style="fill: none; stroke: #cccccc; stroke-linejoin: miter; stroke-linecap: square"/>
   </g>
   <g id="patch_75">
    <path d="M 32.94375 331.811875
L 561.52375 331.811875
" style="fill: none; stroke: #cccccc; stroke-linejoin: miter; stroke-linecap: square"/>
   </g>
   <g id="patch_76">
    <path d="M 32.94375 23.904375
L 561.52375 23.904375
" style="fill: none; stroke: #cccccc; stroke-linejoin: miter; stroke-linecap: square"/>
   </g>
   <g id="text_12">
    <!-- Phân phối maximum drawdown -->
    <g style="fill: #262626" transform="translate(213.531875 17.904375) scale(0.12 -0.12)">
     <defs>
      <path id="ArialMT-50" d="M 494 0
L 494 4581
L 2222 4581
Q 2678 4581 2919 4538
Q 3256 4481 3484 4323
Q 3713 4166 3852 3881
Q 3991 3597 3991 3256
Q 3991 2672 3619 2267
Q 3247 1863 2275 1863
L 1100 1863
L 1100 0
L 494 0
z
M 1100 2403
L 2284 2403
Q 2872 2403 3119 2622
Q 3366 2841 3366 3238
Q 3366 3525 3220 3729
Q 3075 3934 2838 4000
Q 2684 4041 2272 4041
L 1100 4041
L 1100 2403
z
" transform="scale(0.015625)"/>
      <path id="ArialMT-68" d="M 422 0
L 422 4581
L 984 4581
L 984 2938
Q 1378 3394 1978 3394
Q 2347 3394 2619 3248
Q 2891 3103 3008 2847
Q 3125 2591 3125 2103
L 3125 0
L 2563 0
L 2563 2103
Q 2563 2525 2380 2717
Q 2197 2909 1863 2909
Q 1613 2909 1392 2779
Q 1172 2650 1078 2428
Q 984 2206 984 1816
L 984 0
L 422 0
z
" transform="scale(0.015625)"/>
      <path id="ArialMT-e2" d="M 2588 409
Q 2275 144 1986 34
Q 1697 -75 1366 -75
Q 819 -75 525 192
Q 231 459 231 875
Q 231 1119 342 1320
Q 453 1522 633 1644
Q 813 1766 1038 1828
Q 1203 1872 1538 1913
Q 2219 1994 2541 2106
Q 2544 2222 2544 2253
Q 2544 2597 2384 2738
Q 2169 2928 1744 2928
Q 1347 2928 1158 2789
Q 969 2650 878 2297
L 328 2372
Q 403 2725 575 2942
Q 747 3159 1072 3276
Q 1397 3394 1825 3394
Q 2250 3394 2515 3294
Q 2781 3194 2906 3042
Q 3031 2891 3081 2659
Q 3109 2516 3109 2141
L 3109 1391
Q 3109 606 3145 398
Q 3181 191 3288 0
L 2700 0
Q 2613 175 2588 409
z
M 2541 1666
Q 2234 1541 1622 1453
Q 1275 1403 1131 1340
Q 988 1278 909 1158
Q 831 1038 831 891
Q 831 666 1001 516
Q 1172 366 1500 366
Q 1825 366 2078 508
Q 2331 650 2450 897
Q 2541 1088 2541 1459
L 2541 1666
z
M 1771 4263
L 1418 3731
L 774 3731
L 1449 4606
L 2049 4606
L 2752 3731
L 2115 3731
L 1771 4263
z
" transform="scale(0.015625)"/>
      <path id="ArialMT-6e" d="M 422 0
L 422 3319
L 928 3319
L 928 2847
Q 1294 3394 1984 3394
Q 2284 3394 2536 3286
Q 2788 3178 2913 3003
Q 3038 2828 3088 2588
Q 3119 2431 3119 2041
L 3119 0
L 2556 0
L 2556 2019
Q 2556 2363 2490 2533
Q 2425 2703 2258 2804
Q 2091 2906 1866 2906
Q 1506 2906 1245 2678
Q 984 2450 984 1813
L 984 0
L 422 0
z
" transform="scale(0.015625)"/>
      <path id="ArialMT-20" transform="scale(0.015625)"/>
      <path id="ArialMT-70" d="M 422 -1272
L 422 3319
L 934 3319
L 934 2888
Q 1116 3141 1344 3267
Q 1572 3394 1897 3394
Q 2322 3394 2647 3175
Q 2972 2956 3137 2557
Q 3303 2159 3303 1684
Q 3303 1175 3120 767
Q 2938 359 2589 142
Q 2241 -75 1856 -75
Q 1575 -75 1351 44
Q 1128 163 984 344
L 984 -1272
L 422 -1272
z
M 931 1641
Q 931 1000 1190 694
Q 1450 388 1819 388
Q 2194 388 2461 705
Q 2728 1022 2728 1688
Q 2728 2322 2467 2637
Q 2206 2953 1844 2953
Q 1484 2953 1207 2617
Q 931 2281 931 1641
z
" transform="scale(0.015625)"/>
      <path id="ArialMT-1ed1" d="M 213 1659
Q 213 2581 725 3025
Q 1153 3394 1769 3394
Q 2453 3394 2887 2945
Q 3322 2497 3322 1706
Q 3322 1066 3130 698
Q 2938 331 2570 128
Q 2203 -75 1769 -75
Q 1072 -75 642 372
Q 213 819 213 1659
z
M 791 1659
Q 791 1022 1069 705
Q 1347 388 1769 388
Q 2188 388 2466 706
Q 2744 1025 2744 1678
Q 2744 2294 2464 2611
Q 2184 2928 1769 2928
Q 1347 2928 1069 2612
Q 791 2297 791 1659
z
M 1779 4263
L 1426 3731
L 782 3731
L 1457 4606
L 2057 4606
L 2760 3731
L 2123 3731
L 1779 4263
z
M 1874 5709
L 2628 5709
L 1906 4834
L 1453 4834
L 1874 5709
z
" transform="scale(0.015625)"/>
      <path id="ArialMT-69" d="M 425 3934
L 425 4581
L 988 4581
L 988 3934
L 425 3934
z
M 425 0
L 425 3319
L 988 3319
L 988 0
L 425 0
z
" transform="scale(0.015625)"/>
      <path id="ArialMT-6d" d="M 422 0
L 422 3319
L 925 3319
L 925 2853
Q 1081 3097 1340 3245
Q 1600 3394 1931 3394
Q 2300 3394 2536 3241
Q 2772 3088 2869 2813
Q 3263 3394 3894 3394
Q 4388 3394 4653 3120
Q 4919 2847 4919 2278
L 4919 0
L 4359 0
L 4359 2091
Q 4359 2428 4304 2576
Q 4250 2725 4106 2815
Q 3963 2906 3769 2906
Q 3419 2906 3187 2673
Q 2956 2441 2956 1928
L 2956 0
L 2394 0
L 2394 2156
Q 2394 2531 2256 2718
Q 2119 2906 1806 2906
Q 1569 2906 1367 2781
Q 1166 2656 1075 2415
Q 984 2175 984 1722
L 984 0
L 422 0
z
" transform="scale(0.015625)"/>
      <path id="ArialMT-61" d="M 2588 409
Q 2275 144 1986 34
Q 1697 -75 1366 -75
Q 819 -75 525 192
Q 231 459 231 875
Q 231 1119 342 1320
Q 453 1522 633 1644
Q 813 1766 1038 1828
Q 1203 1872 1538 1913
Q 2219 1994 2541 2106
Q 2544 2222 2544 2253
Q 2544 2597 2384 2738
Q 2169 2928 1744 2928
Q 1347 2928 1158 2789
Q 969 2650 878 2297
L 328 2372
Q 403 2725 575 2942
Q 747 3159 1072 3276
Q 1397 3394 1825 3394
Q 2250 3394 2515 3294
Q 2781 3194 2906 3042
Q 3031 2891 3081 2659
Q 3109 2516 3109 2141
L 3109 1391
Q 3109 606 3145 398
Q 3181 191 3288 0
L 2700 0
Q 2613 175 2588 409
z
M 2541 1666
Q 2234 1541 1622 1453
Q 1275 1403 1131 1340
Q 988 1278 909 1158
Q 831 1038 831 891
Q 831 666 1001 516
Q 1172 366 1500 366
Q 1825 366 2078 508
Q 2331 650 2450 897
Q 2541 1088 2541 1459
L 2541 1666
z
" transform="scale(0.015625)"/>
      <path id="ArialMT-78" d="M 47 0
L 1259 1725
L 138 3319
L 841 3319
L 1350 2541
Q 1494 2319 1581 2169
Q 1719 2375 1834 2534
L 2394 3319
L 3066 3319
L 1919 1756
L 3153 0
L 2463 0
L 1781 1031
L 1600 1309
L 728 0
L 47 0
z
" transform="scale(0.015625)"/>
      <path id="ArialMT-75" d="M 2597 0
L 2597 488
Q 2209 -75 1544 -75
Q 1250 -75 995 37
Q 741 150 617 320
Q 494 491 444 738
Q 409 903 409 1263
L 409 3319
L 972 3319
L 972 1478
Q 972 1038 1006 884
Q 1059 663 1231 536
Q 1403 409 1656 409
Q 1909 409 2131 539
Q 2353 669 2445 892
Q 2538 1116 2538 1541
L 2538 3319
L 3100 3319
L 3100 0
L 2597 0
z
" transform="scale(0.015625)"/>
      <path id="ArialMT-64" d="M 2575 0
L 2575 419
Q 2259 -75 1647 -75
Q 1250 -75 917 144
Q 584 363 401 755
Q 219 1147 219 1656
Q 219 2153 384 2558
Q 550 2963 881 3178
Q 1213 3394 1622 3394
Q 1922 3394 2156 3267
Q 2391 3141 2538 2938
L 2538 4581
L 3097 4581
L 3097 0
L 2575 0
z
M 797 1656
Q 797 1019 1065 703
Q 1334 388 1700 388
Q 2069 388 2326 689
Q 2584 991 2584 1609
Q 2584 2291 2321 2609
Q 2059 2928 1675 2928
Q 1300 2928 1048 2622
Q 797 2316 797 1656
z
" transform="scale(0.015625)"/>
      <path id="ArialMT-72" d="M 416 0
L 416 3319
L 922 3319
L 922 2816
Q 1116 3169 1280 3281
Q 1444 3394 1641 3394
Q 1925 3394 2219 3213
L 2025 2691
Q 1819 2813 1613 2813
Q 1428 2813 1281 2702
Q 1134 2591 1072 2394
Q 978 2094 978 1738
L 978 0
L 416 0
z
" transform="scale(0.015625)"/>
      <path id="ArialMT-77" d="M 1034 0
L 19 3319
L 600 3319
L 1128 1403
L 1325 691
Q 1338 744 1497 1375
L 2025 3319
L 2603 3319
L 3100 1394
L 3266 759
L 3456 1400
L 4025 3319
L 4572 3319
L 3534 0
L 2950 0
L 2422 1988
L 2294 2553
L 1622 0
L 1034 0
z
" transform="scale(0.015625)"/>
      <path id="ArialMT-6f" d="M 213 1659
Q 213 2581 725 3025
Q 1153 3394 1769 3394
Q 2453 3394 2887 2945
Q 3322 2497 3322 1706
Q 3322 1066 3130 698
Q 2938 331 2570 128
Q 2203 -75 1769 -75
Q 1072 -75 642 372
Q 213 819 213 1659
z
M 791 1659
Q 791 1022 1069 705
Q 1347 388 1769 388
Q 2188 388 2466 706
Q 2744 1025 2744 1678
Q 2744 2294 2464 2611
Q 2184 2928 1769 2928
Q 1347 2928 1069 2612
Q 791 2297 791 1659
z
" transform="scale(0.015625)"/>
     </defs>
     <use xlink:href="#ArialMT-50"/>
     <use xlink:href="#ArialMT-68" transform="translate(66.699219 0)"/>
     <use xlink:href="#ArialMT-e2" transform="translate(122.314453 0)"/>
     <use xlink:href="#ArialMT-6e" transform="translate(177.929688 0)"/>
     <use xlink:href="#ArialMT-20" transform="translate(233.544922 0)"/>
     <use xlink:href="#ArialMT-70" transform="translate(261.328125 0)"/>
     <use xlink:href="#ArialMT-68" transform="translate(316.943359 0)"/>
     <use xlink:href="#ArialMT-1ed1" transform="translate(372.558594 0)"/>
     <use xlink:href="#ArialMT-69" transform="translate(428.173828 0)"/>
     <use xlink:href="#ArialMT-20" transform="translate(450.390625 0)"/>
     <use xlink:href="#ArialMT-6d" transform="translate(478.173828 0)"/>
     <use xlink:href="#ArialMT-61" transform="translate(561.474609 0)"/>
     <use xlink:href="#ArialMT-78" transform="translate(617.089844 0)"/>
     <use xlink:href="#ArialMT-69" transform="translate(667.089844 0)"/>
     <use xlink:href="#ArialMT-6d" transform="translate(689.306641 0)"/>
     <use xlink:href="#ArialMT-75" transform="translate(772.607422 0)"/>
     <use xlink:href="#ArialMT-6d" transform="translate(828.222656 0)"/>
     <use xlink:href="#ArialMT-20" transform="translate(911.523438 0)"/>
     <use xlink:href="#ArialMT-64" transform="translate(939.306641 0)"/>
     <use xlink:href="#ArialMT-72" transform="translate(994.921875 0)"/>
     <use xlink:href="#ArialMT-61" transform="translate(1028.222656 0)"/>
     <use xlink:href="#ArialMT-77" transform="translate(1083.837891 0)"/>
     <use xlink:href="#ArialMT-64" transform="translate(1156.054688 0)"/>
     <use xlink:href="#ArialMT-6f" transform="translate(1211.669922 0)"/>
     <use xlink:href="#ArialMT-77" transform="translate(1267.285156 0)"/>
     <use xlink:href="#ArialMT-6e" transform="translate(1339.501953 0)"/>
    </g>
   </g>
  </g>
 </g>
 <defs>
  <clipPath id="p7ef85057ce">
   <rect x="32.94375" y="23.904375" width="528.58" height="307.9075"/>
  </clipPath>
 </defs>
</svg>
